<svg
    viewBox="0 0 109 28"
    fill="none"
    xmlns="http://www.w3.org/2000/svg"
>
    <path
        fill-rule="evenodd"
        clip-rule="evenodd"
        d="M27.6289 14.5727L25.565 12.5126C25.4014 12.3494 25.3095 12.1281 25.3095 11.8974V9.37588C25.3095 7.04617 25.0665 6.20136 24.6101 5.34965C24.1538 4.49794 23.484 3.82951 22.6307 3.37402C21.7773 2.91852 20.9309 2.67594 18.5967 2.67594H15.2583C15.1617 2.67594 15.0834 2.59795 15.0834 2.50173C15.0834 2.45559 15.1018 2.41134 15.1345 2.37867L17.1985 0.318537C17.3626 0.154775 17.5854 0.0627441 17.8177 0.0627441H18.9773C22.0896 0.0627441 23.2182 0.386173 24.356 0.993505C25.4938 1.60084 26.3867 2.49207 26.9951 3.62769C27.6037 4.7633 27.9278 5.88971 27.9278 8.996V14.4496C27.9278 14.5458 27.8494 14.6239 27.7528 14.6239C27.7064 14.6239 27.6617 14.6054 27.6289 14.5727ZM13.3889 27.64L15.4529 25.5798C15.617 25.416 15.8398 25.324 16.0721 25.324H18.5966C20.9308 25.324 21.7772 25.0814 22.6305 24.626C23.4839 24.1705 24.1535 23.5021 24.61 22.6503C25.0663 21.7986 25.3094 20.9538 25.3094 18.6241V15.2924C25.3094 15.1962 25.3877 15.1183 25.4842 15.1183C25.5308 15.1183 25.5753 15.1366 25.6081 15.1694L27.6721 17.2294C27.8357 17.3927 27.9275 17.614 27.9275 17.8447V19.0039C27.9275 22.1103 27.6035 23.2367 26.995 24.3723C26.3865 25.5079 25.4935 26.3992 24.3557 27.0065C23.2179 27.6138 22.0894 27.9373 18.9772 27.9373H13.5126C13.416 27.9373 13.3378 27.8593 13.3378 27.763C13.3378 27.7169 13.3562 27.6727 13.3889 27.64ZM2.36271 15.4871L0.298747 13.427C0.265932 13.3943 0.221382 13.3759 0.174925 13.3759C0.0783163 13.3759 0 13.4539 0 13.5501V19.0037C0 22.1099 0.32405 23.2365 0.932549 24.372C1.54104 25.5077 2.43399 26.3989 3.57179 27.0062C4.70958 27.6136 5.83816 27.937 8.95042 27.937H10.1101C10.3423 27.937 10.5651 27.8449 10.7292 27.6812L12.7933 25.621C12.826 25.5884 12.8444 25.5441 12.8444 25.4979C12.8444 25.4017 12.7661 25.3238 12.6694 25.3238H9.33104C6.99685 25.3238 6.15042 25.0812 5.29706 24.6256C4.44371 24.1702 3.77401 23.5017 3.31763 22.65C2.86126 21.7983 2.61823 20.9536 2.61823 18.6238V16.1023C2.61823 15.8716 2.52634 15.6503 2.36271 15.4871ZM14.5388 0.360013L12.4746 2.42015C12.3105 2.58391 12.0879 2.67595 11.8556 2.67595H9.33104C6.99685 2.67595 6.1504 2.91852 5.29706 3.37402C4.44371 3.82951 3.77401 4.49794 3.31763 5.34965C2.86126 6.20136 2.61823 7.04618 2.61823 9.37589V12.7075C2.61823 12.8037 2.5399 12.8817 2.44329 12.8817C2.39684 12.8817 2.35229 12.8633 2.31947 12.8306L0.255505 10.7706C0.091889 10.6073 0 10.386 0 10.1553V8.99601C0 5.88972 0.32405 4.76331 0.932549 3.62769C1.54104 2.49208 2.43399 1.60084 3.57179 0.993506C4.70958 0.386174 5.83816 0.0627441 8.95042 0.0627441H14.4149C14.5115 0.0627441 14.5899 0.140742 14.5899 0.236958C14.5899 0.283097 14.5715 0.327352 14.5388 0.360013ZM20.4536 7.54829L23.268 10.233C23.3006 10.2641 23.344 10.2814 23.3891 10.2814C23.4857 10.2814 23.5639 10.2034 23.5639 10.1072V7.90211C23.5639 5.9778 22.001 4.41785 20.073 4.41785H13.4537C13.2215 4.41785 12.9989 4.50977 12.8348 4.67337L10.7688 6.73373C10.7361 6.76639 10.7177 6.81067 10.7177 6.85683C10.7177 6.95305 10.796 7.03104 10.8926 7.03104H19.2003C19.4176 7.03104 19.6256 7.07069 19.8175 7.1431C20.0496 7.22743 20.2674 7.36249 20.4536 7.54829ZM17.7368 23.2891L20.4276 20.479C20.6138 20.2932 20.7491 20.0759 20.8336 19.8442C20.9061 19.6526 20.9458 19.445 20.9458 19.2281V10.9368C20.9458 10.8406 21.0241 10.7626 21.1207 10.7626C21.1672 10.7626 21.2118 10.781 21.2446 10.8138L23.3088 12.8757C23.4723 13.039 23.564 13.2602 23.564 13.4908V20.0992C23.564 22.0236 22.0011 23.5835 20.0731 23.5835H17.8634C17.7668 23.5835 17.6885 23.5055 17.6885 23.4093C17.6885 23.3645 17.7057 23.3214 17.7368 23.2891ZM7.47446 20.4514L4.65994 17.7667C4.62737 17.7356 4.58403 17.7183 4.53895 17.7183C4.44233 17.7183 4.36401 17.7963 4.36401 17.8924V20.0976C4.36401 22.0219 5.92697 23.5818 7.85498 23.5818H14.4742C14.7064 23.5818 14.9291 23.4899 15.0932 23.3262L17.1592 21.2659C17.192 21.2332 17.2104 21.189 17.2104 21.1429C17.2104 21.0467 17.132 20.9686 17.0354 20.9686H8.72773C8.51041 20.9686 8.30238 20.9289 8.11048 20.8566C7.87839 20.7722 7.66063 20.6372 7.47446 20.4514ZM10.1913 4.71229L7.50048 7.52233C7.31431 7.70813 7.179 7.92547 7.09452 8.15711C7.02196 8.34865 6.98224 8.55629 6.98224 8.77318V17.0646C6.98224 17.1608 6.90392 17.2387 6.80732 17.2387C6.76083 17.2387 6.71626 17.2203 6.68344 17.1875L4.61927 15.1256C4.4558 14.9623 4.36401 14.7411 4.36401 14.5106V7.90211C4.36401 5.9778 5.92697 4.41785 7.85498 4.41785H10.0647C10.1613 4.41785 10.2396 4.49584 10.2396 4.59206C10.2396 4.63684 10.2223 4.67989 10.1913 4.71229ZM36.622 8.53865H35.9464C35.3838 8.53865 34.9277 8.9929 34.9277 9.55325V23.8739C34.9277 24.4342 35.3838 24.8884 35.9464 24.8884H36.5711C37.1339 24.8884 37.5899 24.4342 37.5899 23.8739V18.2809C37.5899 18.2443 37.6197 18.2146 37.6565 18.2146C37.7896 18.3993 37.9596 18.5879 38.1667 18.7804C38.3737 18.9729 38.6252 19.1537 38.921 19.3231C39.2168 19.4925 39.5569 19.631 39.9415 19.7387C40.3261 19.8465 40.7698 19.9003 41.2727 19.9003C42.0269 19.9003 42.722 19.7503 43.358 19.4501C43.994 19.1498 44.5376 18.738 44.9887 18.2146C45.4398 17.6912 45.7909 17.0754 46.0424 16.3671C46.2938 15.6589 46.4195 14.8969 46.4195 14.081C46.4195 13.265 46.3012 12.503 46.0646 11.7948C45.828 11.0866 45.4804 10.4708 45.0219 9.94732C44.5634 9.42389 44.0088 9.01206 43.358 8.71185C42.7073 8.41164 41.9752 8.26153 41.1617 8.26153C40.4074 8.26153 39.7049 8.41549 39.0541 8.7234C38.4034 9.03131 37.8857 9.52395 37.5012 10.2013C37.4766 10.2013 37.4568 10.1816 37.4568 10.1572V9.37C37.4568 8.91086 37.0831 8.53865 36.622 8.53865ZM43.5466 12.834C43.6871 13.2343 43.7573 13.6499 43.7573 14.081C43.7573 14.5121 43.6871 14.9277 43.5466 15.3279C43.4061 15.7282 43.199 16.0823 42.9254 16.3902C42.6517 16.6981 42.3227 16.9445 41.9381 17.1292C41.5537 17.314 41.1173 17.4064 40.6292 17.4064C40.1412 17.4064 39.7049 17.314 39.3203 17.1292C38.9358 16.9445 38.6067 16.6981 38.3331 16.3902C38.0594 16.0823 37.8525 15.7282 37.7119 15.3279C37.5714 14.9277 37.5012 14.5121 37.5012 14.081C37.5012 13.6499 37.5714 13.2343 37.7119 12.834C37.8525 12.4337 38.0594 12.0796 38.3331 11.7717C38.6067 11.4638 38.9358 11.2174 39.3203 11.0327C39.7049 10.8479 40.1412 10.7556 40.6292 10.7556C41.1173 10.7556 41.5537 10.8479 41.9381 11.0327C42.3227 11.2174 42.6517 11.4638 42.9254 11.7717C43.199 12.0796 43.4061 12.4337 43.5466 12.834ZM51.0182 8.53865H50.2557C49.6931 8.53865 49.2371 8.9929 49.2371 9.55325V18.6086C49.2371 19.169 49.6931 19.6233 50.2557 19.6233H50.8806C51.4432 19.6233 51.8993 19.169 51.8993 18.6086V13.6884C51.8993 13.5344 51.9325 13.3035 51.9991 12.9955C52.0656 12.6876 52.1988 12.3798 52.3984 12.0719C52.5981 11.764 52.8865 11.4907 53.2636 11.2521C53.6408 11.0134 54.1399 10.8941 54.7611 10.8941C54.9682 10.8941 55.1789 10.9134 55.3934 10.9519C55.426 10.9577 55.4589 10.9606 55.492 10.9606C55.799 10.9606 56.0478 10.7128 56.0478 10.407V8.88665C56.0478 8.60508 55.8481 8.36271 55.5709 8.30773C55.4155 8.27694 55.2566 8.26153 55.0939 8.26153C54.384 8.26153 53.7554 8.43858 53.2082 8.79267C52.6609 9.14677 52.2394 9.64711 51.9437 10.2937C51.9191 10.2937 51.8993 10.2739 51.8993 10.2495V9.41618C51.8993 8.93153 51.5048 8.53865 51.0182 8.53865ZM59.8876 8.53865H59.2629C58.7003 8.53865 58.2442 8.9929 58.2442 9.55325V18.6086C58.2442 19.169 58.7003 19.6233 59.2629 19.6233H59.8876C60.4503 19.6233 60.9064 19.169 60.9064 18.6086V9.55325C60.9064 8.9929 60.4503 8.53865 59.8876 8.53865ZM58.344 3.60831C58.026 3.93931 57.867 4.32804 57.867 4.7745C57.867 5.22097 58.026 5.6097 58.344 5.9407C58.662 6.2717 59.065 6.4372 59.5531 6.4372C60.0412 6.4372 60.4516 6.2794 60.7844 5.96379C61.1171 5.64818 61.2835 5.25176 61.2835 4.7745C61.2835 4.29725 61.1171 3.90082 60.7844 3.58522C60.4516 3.26961 60.0412 3.11182 59.5531 3.11182C59.065 3.11182 58.662 3.27731 58.344 3.60831ZM67.8947 10.4785C68.3159 10.4785 68.7966 10.6762 69.3368 11.0718C69.7328 11.3618 70.2802 11.3288 70.6383 10.9934L70.9699 10.6826C71.0041 10.6507 71.0359 10.6165 71.0653 10.5802C71.4183 10.1438 71.3493 9.50511 70.9111 9.15355C70.6013 8.90487 70.3205 8.73455 70.0688 8.64257C69.3737 8.38855 68.6712 8.26153 67.9612 8.26153C67.4288 8.26153 66.9037 8.33082 66.386 8.46938C65.8684 8.60793 65.4099 8.82346 65.0106 9.11598C64.6113 9.40848 64.2896 9.78182 64.0456 10.236C63.8015 10.6901 63.6796 11.2251 63.6796 11.841C63.6796 12.5491 63.82 13.1033 64.101 13.5036C64.382 13.9039 64.737 14.2157 65.1659 14.4389C65.5948 14.6621 66.057 14.8238 66.5525 14.9239C67.048 15.024 67.5101 15.1317 67.9391 15.2472C68.3679 15.3627 68.723 15.5127 69.0039 15.6975C69.2849 15.8823 69.4254 16.167 69.4254 16.5519C69.4254 16.7675 69.3699 16.9561 69.2591 17.1177C69.1482 17.2794 69.004 17.414 68.8264 17.5218C68.6489 17.6296 68.4567 17.7066 68.2496 17.7527C68.0426 17.799 67.8429 17.822 67.6507 17.822C67.0886 17.822 66.6117 17.695 66.2197 17.441C66.1013 17.3643 65.9613 17.2551 65.7998 17.1135C65.3995 16.7624 64.7948 16.7784 64.4137 17.1503L64.1376 17.4198C64.1033 17.4532 64.0715 17.4889 64.0423 17.5268C63.6999 17.9713 63.784 18.6083 64.2303 18.9493C64.6114 19.2406 64.938 19.4344 65.2103 19.5309C65.9054 19.7772 66.6671 19.9003 67.4953 19.9003C68.0426 19.9003 68.5898 19.8388 69.137 19.7157C69.6843 19.5924 70.1761 19.3924 70.6123 19.1152C71.0486 18.8381 71.4036 18.4725 71.6772 18.0183C71.9508 17.5641 72.0876 17.006 72.0876 16.3441C72.0876 15.6205 71.9471 15.0509 71.6661 14.6352C71.3851 14.2195 71.0301 13.8924 70.6013 13.6538C70.1723 13.4151 69.7101 13.2381 69.2147 13.1226C68.7192 13.0072 68.257 12.8955 67.8281 12.7877C67.3992 12.6799 67.0442 12.5491 66.7632 12.3952C66.4822 12.2412 66.3418 11.9949 66.3418 11.6562C66.3418 11.2405 66.5118 10.9403 66.852 10.7556C67.1922 10.5708 67.5397 10.4785 67.8947 10.4785ZM75.883 8.53865H75.3914C74.8288 8.53865 74.3727 8.9929 74.3727 9.55325V18.6086C74.3727 19.169 74.8288 19.6233 75.3914 19.6233H76.0162C76.5788 19.6233 77.0349 19.169 77.0349 18.6086V13.5729C77.0349 13.2034 77.0793 12.8493 77.168 12.5107C77.2568 12.172 77.4009 11.8718 77.6007 11.61C77.8003 11.3483 78.0517 11.1405 78.3549 10.9865C78.6581 10.8325 79.0315 10.7556 79.4752 10.7556C80.1261 10.7556 80.5919 10.9596 80.8729 11.3675C81.154 11.7755 81.2944 12.3259 81.2944 13.0187V18.6086C81.2944 19.169 81.7505 19.6233 82.3132 19.6233H82.9379C83.5005 19.6233 83.9566 19.169 83.9566 18.6086V13.6191C83.9566 13.265 83.9973 12.9148 84.0787 12.5683C84.16 12.222 84.2932 11.914 84.478 11.6447C84.6628 11.3752 84.8995 11.1597 85.1879 10.9981C85.4763 10.8364 85.8276 10.7556 86.2416 10.7556C86.641 10.7556 86.9664 10.8249 87.2179 10.9634C87.4693 11.102 87.669 11.2906 87.8168 11.5292C87.9648 11.7678 88.0683 12.0449 88.1275 12.3605C88.1866 12.6761 88.2161 13.0032 88.2161 13.342V18.6086C88.2161 19.169 88.6722 19.6233 89.2349 19.6233H89.8596C90.4222 19.6233 90.8783 19.169 90.8783 18.6086V13.0187C90.8783 12.3566 90.8118 11.737 90.6787 11.1597C90.5456 10.5824 90.3274 10.0782 90.0243 9.64712C89.721 9.21604 89.3254 8.87735 88.8373 8.63102C88.3493 8.3847 87.7503 8.26153 87.0403 8.26153C86.2416 8.26153 85.5539 8.42704 84.9771 8.75804C84.4003 9.08903 83.9196 9.60862 83.5351 10.3168C82.9879 8.94662 81.8787 8.26153 80.2074 8.26153C79.3199 8.26153 78.6137 8.46552 78.0887 8.8735C77.5637 9.28148 77.1828 9.74718 76.9018 10.2706V9.55325C76.9018 8.9929 76.4457 8.53865 75.883 8.53865ZM95.8053 8.53865H95.1804C94.6178 8.53865 94.1617 8.9929 94.1617 9.55325V18.6086C94.1617 19.169 94.6178 19.6233 95.1804 19.6233H95.8053C96.3679 19.6233 96.824 19.169 96.824 18.6086V9.55325C96.824 8.9929 96.3679 8.53865 95.8053 8.53865ZM94.2616 3.60831C93.9436 3.93931 93.7846 4.32804 93.7846 4.7745C93.7846 5.22097 93.9436 5.6097 94.2616 5.9407C94.5796 6.2717 94.9825 6.4372 95.4706 6.4372C95.9588 6.4372 96.3691 6.2794 96.7019 5.96379C97.0347 5.64818 97.2011 5.25176 97.2011 4.7745C97.2011 4.29725 97.0347 3.90082 96.7019 3.58522C96.3691 3.26961 95.9588 3.11182 95.4706 3.11182C94.9825 3.11182 94.5796 3.27731 94.2616 3.60831ZM106.519 11.0558C106.602 11.1047 106.698 11.1718 106.808 11.2572C107.22 11.5785 107.81 11.5363 108.172 11.1596L108.583 10.7313C108.612 10.7013 108.639 10.6695 108.664 10.6362C109 10.1869 108.907 9.55124 108.456 9.21639C108.1 8.95191 107.79 8.76834 107.528 8.66566C106.84 8.39625 106.157 8.26153 105.476 8.26153C104.677 8.26153 103.923 8.40009 103.213 8.67721C102.503 8.95433 101.89 9.3469 101.372 9.85495C100.854 10.363 100.444 10.975 100.141 11.6908C99.8375 12.4067 99.6858 13.2034 99.6858 14.081C99.6858 14.9585 99.8375 15.7552 100.141 16.4711C100.444 17.187 100.854 17.799 101.372 18.3069C101.89 18.815 102.503 19.2076 103.213 19.4847C103.923 19.7618 104.677 19.9003 105.476 19.9003C105.713 19.9003 105.994 19.8734 106.319 19.8196C106.645 19.7657 106.985 19.6771 107.34 19.554C107.695 19.4308 108.046 19.2691 108.393 19.0691C108.45 19.0363 108.504 18.9978 108.553 18.9543C108.953 18.5996 108.989 17.9889 108.633 17.5904L108.228 17.1377C107.878 16.7464 107.287 16.6846 106.863 16.9947C106.779 17.0564 106.702 17.105 106.63 17.1407C106.275 17.3178 105.89 17.4064 105.476 17.4064C104.988 17.4064 104.552 17.314 104.167 17.1292C103.783 16.9445 103.454 16.6981 103.18 16.3902C102.906 16.0823 102.699 15.7282 102.559 15.3279C102.418 14.9277 102.348 14.5121 102.348 14.081C102.348 13.6499 102.418 13.2343 102.559 12.834C102.699 12.4337 102.906 12.0796 103.18 11.7717C103.454 11.4638 103.783 11.2174 104.167 11.0327C104.552 10.8479 104.988 10.7556 105.476 10.7556C105.831 10.7556 106.179 10.8557 106.519 11.0558Z"
        fill="currentColor"
    />
</svg>